<svg xmlns="http://www.w3.org/2000/svg" viewBox="0 0 100 100">
  <ellipse cx="50" cy="55" rx="40" ry="40" fill="#737AA3"/>
  <ellipse cx="50" cy="41" rx="32" ry="22" fill="#8C94B8" opacity="0.45"/>
  <ellipse cx="50" cy="80" rx="26" ry="11" fill="#525980" opacity="0.4"/>
  <path d="M48.702,19.404 Q48.248,13.903 50,12.4 Q51.752,13.903 51.298,19.404 Z" fill="#4C5780"/>
  <path d="M53.398,20.472 Q59.979,18.386 63.315,19.172 Q61.062,20.886 54.2,22.2 Z" fill="#4C5780"/>
  <path d="M53.398,23.928 Q57.92,28.14 58.229,30.128 Q55.085,29.684 51.298,24.996 Z" fill="#4C5780"/>
  <path d="M48.702,24.996 Q44.915,29.684 41.771,30.128 Q42.08,28.14 46.602,23.928 Z" fill="#4C5780"/>
  <path d="M45.8,22.2 Q38.938,20.886 36.685,19.172 Q40.021,18.386 46.602,20.472 Z" fill="#4C5780"/>
  <ellipse cx="50" cy="22.2" rx="3.5" ry="2.45" fill="#4C5780"/>
  <ellipse cx="35.2" cy="37.8" rx="6" ry="7.6" fill="white" opacity="0.55"/>
  <ellipse cx="46" cy="43.8" rx="3.2" ry="4" fill="white" opacity="0.4"/>
  <ellipse cx="37.2" cy="56.2" rx="4.8" ry="5.28" fill="rgba(0,0,0,0.85)"/>
  <ellipse cx="39.36" cy="54.04" rx="1.92" ry="1.92" fill="white"/>
  <ellipse cx="62.8" cy="56.2" rx="4.8" ry="5.28" fill="rgba(0,0,0,0.85)"/>
  <ellipse cx="64.96" cy="54.04" rx="1.92" ry="1.92" fill="white"/>
  <ellipse cx="34.32" cy="63.4" rx="6.48" ry="2.4" fill="#F0857A" opacity="0.5"/>
  <ellipse cx="65.68" cy="63.4" rx="6.48" ry="2.4" fill="#F0857A" opacity="0.5"/>
  <path d="M44.4,65 Q50,71.4 55.6,65 Z" fill="rgba(0,0,0,0.75)"/>
  <ellipse cx="50" cy="67.8" rx="2.4" ry="1.2" fill="#F0857A" opacity="0.65"/>
</svg>
